<svg width="206" height="134" viewBox="0 0 206 134" fill="none" xmlns="http://www.w3.org/2000/svg">
<g clip-path="url(#clip0_1443_40774)">
<rect x="0.0986328" width="205.102" height="134" rx="6.38095" fill="#FF975C"/>
<path d="M-12.4154 34.1778C-4.54865 37.0237 4.05746 37.0778 11.9594 34.3313C19.8614 31.5847 26.5787 26.2045 30.9845 19.093C35.3903 11.9815 37.2167 3.57124 36.1575 -4.72712C35.0982 -13.0255 31.2176 -20.7072 25.1666 -26.4839C19.1156 -32.2606 11.2622 -35.7809 2.92369 -36.4544C-5.41486 -37.1279 -13.7314 -34.9135 -20.631 -30.1828C-27.5306 -25.452 -32.5937 -18.4926 -34.971 -10.4718C-37.3483 -2.45096 -36.8952 6.14338 -33.6878 13.8698L-21.7842 8.92825C-23.8579 3.93292 -24.1508 -1.62355 -22.6138 -6.80922C-21.0768 -11.9949 -17.8034 -16.4943 -13.3426 -19.5529C-8.88183 -22.6115 -3.50497 -24.0431 1.88613 -23.6077C7.27723 -23.1723 12.3546 -20.8963 16.2668 -17.1615C20.1789 -13.4267 22.6878 -8.46026 23.3727 -3.09515C24.0575 2.26997 22.8767 7.70742 20.0282 12.3052C17.1797 16.903 12.8368 20.3815 7.72799 22.1572C2.61915 23.9329 -2.94494 23.8979 -8.03102 22.058L-12.4154 34.1778Z" fill="#E57D42"/>
</g>
<defs>
<clipPath id="clip0_1443_40774">
<rect x="0.0986328" width="205.102" height="134" rx="6.38095" fill="white"/>
</clipPath>
</defs>
</svg>
